<svg width="24" height="24" viewBox="0 0 24 24" fill="none" xmlns="http://www.w3.org/2000/svg">
<path d="M16 8.89667C17.5913 8.89667 19.1174 9.51792 20.2426 10.6238C21.3679 11.7296 22 13.2294 22 14.7933V21.6728H18V14.7933C18 14.272 17.7893 13.7721 17.4142 13.4035C17.0391 13.0349 16.5304 12.8278 16 12.8278C15.4696 12.8278 14.9609 13.0349 14.5858 13.4035C14.2107 13.7721 14 14.272 14 14.7933V21.6728H10V14.7933C10 13.2294 10.6321 11.7296 11.7574 10.6238C12.8826 9.51792 14.4087 8.89667 16 8.89667V8.89667Z" stroke="#2B2C34" stroke-width="2" stroke-linecap="round" stroke-linejoin="round"/>
<path d="M6 9.87939H2V21.6727H6V9.87939Z" stroke="#2B2C34" stroke-width="2" stroke-linecap="round" stroke-linejoin="round"/>
<path d="M4 6.93111C5.10457 6.93111 6 6.0511 6 4.96555C6 3.88001 5.10457 3 4 3C2.89543 3 2 3.88001 2 4.96555C2 6.0511 2.89543 6.93111 4 6.93111Z" stroke="#2B2C34" stroke-width="2" stroke-linecap="round" stroke-linejoin="round"/>
</svg>
