<svg width="24" height="24" viewBox="0 0 24 24" fill="none" xmlns="http://www.w3.org/2000/svg">
<path fill-rule="evenodd" clip-rule="evenodd" d="M2 0C0.895431 0 0 0.89543 0 2V22C0 23.1046 0.89543 24 2 24H22C23.1046 24 24 23.1046 24 22V2C24 0.895431 23.1046 0 22 0H2ZM5.625 7.59375C5.76562 7.6875 5.85938 7.92188 5.85938 8.10938V15.0938C5.90625 15.3281 5.8125 15.6094 5.625 15.7969L3.98438 17.8125V18.0469H8.67188V17.8125L7.03125 15.7969C6.84375 15.6094 6.75 15.3281 6.79688 15.0938V9.04688L10.9219 18.0469H11.3906L14.9531 9.04688V16.2188C14.9531 16.4062 14.9531 16.4531 14.8125 16.5938L13.5469 17.8125V18.0938H19.7812V17.8125L18.5156 16.6406C18.4219 16.5469 18.375 16.4062 18.375 16.2656V7.35938C18.375 7.21875 18.4219 7.07812 18.5156 7.03125L19.7812 5.8125V5.53125H15.4219L12.2812 13.3125L8.76562 5.53125H4.17188V5.8125L5.625 7.59375Z" fill="#2B2C34"/>
</svg>
