<svg width="24" height="24" viewBox="0 0 24 24" fill="none" xmlns="http://www.w3.org/2000/svg">
<path fill-rule="evenodd" clip-rule="evenodd" d="M2 0C0.895431 0 0 0.89543 0 2V22C0 23.1046 0.89543 24 2 24H22C23.1046 24 24 23.1046 24 22V2C24 0.895431 23.1046 0 22 0H2ZM19.587 4.36362H17.106L13.0177 9.03687L9.48295 4.36362H4.36348L10.4805 12.3624L4.68298 18.9886H7.16545L11.64 13.8759L15.5505 18.9886H20.5432L14.1667 10.5586L19.587 4.36362ZM17.61 17.5036H16.2352L7.2607 5.77062H8.73595L17.61 17.5036Z" fill="#2B2C34"/>
</svg>
